<?xml version="1.0" standalone="no"?><!DOCTYPE svg PUBLIC "-//W3C//DTD SVG 1.1//EN" "http://www.w3.org/Graphics/SVG/1.1/DTD/svg11.dtd"><svg t="1648910014564" class="icon" viewBox="0 0 1024 1024" version="1.1" xmlns="http://www.w3.org/2000/svg" p-id="2298" xmlns:xlink="http://www.w3.org/1999/xlink" width="200" height="200"><defs><style type="text/css">@font-face { font-family: feedback-iconfont; src: url("//at.alicdn.com/t/font_1031158_u69w8yhxdu.woff2?t=1630033759944") format("woff2"), url("//at.alicdn.com/t/font_1031158_u69w8yhxdu.woff?t=1630033759944") format("woff"), url("//at.alicdn.com/t/font_1031158_u69w8yhxdu.ttf?t=1630033759944") format("truetype"); }
</style></defs><path d="M727.04 386.56V202.24c0-20.48-10.24-38.4-28.16-48.64l-158.72-92.16c-17.92-10.24-38.4-10.24-56.32 0L325.12 153.6c-17.92 10.24-28.16 28.16-28.16 48.64V384c0 20.48 10.24 38.4 28.16 48.64l158.72 92.16c7.68 5.12 17.92 7.68 28.16 7.68s20.48-2.56 28.16-7.68l158.72-92.16c15.36-7.68 28.16-28.16 28.16-46.08z m-51.2 0c0 2.56 0 2.56-2.56 5.12l-158.72 92.16h-5.12l-158.72-92.16c-2.56 0-2.56-2.56-2.56-5.12V202.24c0-2.56 0-2.56 2.56-5.12l158.72-92.16h5.12l158.72 92.16c2.56 0 2.56 2.56 2.56 5.12v184.32zM942.08 588.8l-158.72-92.16c-17.92-10.24-38.4-10.24-56.32 0L568.32 588.8c-17.92 10.24-28.16 28.16-28.16 48.64V819.2c0 20.48 10.24 38.4 28.16 48.64l158.72 92.16c7.68 5.12 17.92 7.68 28.16 7.68s20.48-2.56 28.16-7.68l158.72-92.16c17.92-10.24 28.16-28.16 28.16-48.64v-181.76c0-17.92-12.8-38.4-28.16-48.64z m-23.04 232.96c0 2.56 0 2.56-2.56 5.12l-158.72 92.16h-5.12l-158.72-92.16c-2.56 0-2.56-2.56-2.56-5.12V640c0-2.56 0-2.56 2.56-5.12l158.72-92.16h5.12l158.72 92.16c2.56 0 2.56 2.56 2.56 5.12v181.76zM455.68 588.8l-158.72-92.16c-17.92-10.24-38.4-10.24-56.32 0L81.92 588.8c-17.92 10.24-28.16 28.16-28.16 48.64V819.2c0 20.48 10.24 38.4 28.16 48.64l158.72 92.16c7.68 5.12 17.92 7.68 28.16 7.68s20.48-2.56 28.16-7.68l158.72-92.16c17.92-10.24 28.16-28.16 28.16-48.64v-181.76c0-17.92-12.8-38.4-28.16-48.64z m-23.04 232.96c0 2.56 0 2.56-2.56 5.12l-158.72 92.16h-5.12l-158.72-92.16c-2.56 0-2.56-2.56-2.56-5.12V640c0-2.56 0-2.56 2.56-5.12l158.72-92.16h5.12l158.72 92.16c2.56 0 2.56 2.56 2.56 5.12v181.76z" fill="#303133" p-id="2299"></path></svg>