<?xml version="1.0" standalone="no"?><!DOCTYPE svg PUBLIC "-//W3C//DTD SVG 1.1//EN" "http://www.w3.org/Graphics/SVG/1.1/DTD/svg11.dtd"><svg t="1643255794875" class="icon" viewBox="0 0 1024 1024" version="1.1" xmlns="http://www.w3.org/2000/svg" p-id="2054" xmlns:xlink="http://www.w3.org/1999/xlink" width="200" height="200"><defs><style type="text/css"></style></defs><path d="M613.6 251.5H147.1c-17.9 0-32.4-14.5-32.4-32.4s14.5-32.4 32.4-32.4h466.5c17.9 0 32.4 14.5 32.4 32.4s-14.5 32.4-32.4 32.4zM613.6 437.1H147.1c-17.9 0-32.4-14.5-32.4-32.4s14.5-32.4 32.4-32.4h466.5c17.9 0 32.4 14.5 32.4 32.4 0 17.8-14.5 32.4-32.4 32.4zM613.6 622.6H147.1c-17.9 0-32.4-14.5-32.4-32.4s14.5-32.4 32.4-32.4h466.5c17.9 0 32.4 14.5 32.4 32.4s-14.5 32.4-32.4 32.4zM613.6 808.2H147.1c-17.9 0-32.4-14.5-32.4-32.4s14.5-32.4 32.4-32.4h466.5c17.9 0 32.4 14.5 32.4 32.4s-14.5 32.4-32.4 32.4zM776.8 831.9c-17.9 0-32.4-14.5-32.4-32.4V200.4c0-12.3 6.9-23.5 17.9-29 11-5.5 24.1-4.3 33.9 3.1l137.6 103.2c14.3 10.7 17.2 31 6.5 45.4-10.8 14.3-31.1 17.2-45.4 6.5l-85.7-64.3v534.3c0 17.8-14.5 32.3-32.4 32.3z" fill="#363c54" p-id="2055"></path></svg>