<svg width="8" height="8" viewBox="0 0 8 8" fill="none" xmlns="http://www.w3.org/2000/svg">
<path d="M2.20312 4.92896L2.35938 3.13208L1.12891 3.17114L1.1875 2.09692L2.45703 2.05786L2.61328 0.378174L3.74609 0.514893L3.58984 1.99927L4.85938 1.94067L5.01562 0.397705L6.14844 0.514893L6.01172 1.88208L7.02734 1.86255L6.94922 2.93677L5.91406 2.97583L5.73828 4.77271L6.85156 4.73364L6.79297 5.80786L5.64062 5.84692L5.46484 7.74146L4.35156 7.62427L4.52734 5.90552L3.25781 5.94458L3.08203 7.6438L1.96875 7.52661L2.10547 6.00317L0.992188 6.04224L1.05078 4.98755L2.20312 4.92896ZM4.76172 3.03442L3.49219 3.07349L3.31641 4.85083L4.58594 4.81177L4.76172 3.03442Z" fill="#1276d2"/>
</svg>
